<?xml version="1.0" encoding="UTF-8" standalone="no"?>
<!-- Created with Inkscape (http://www.inkscape.org/) -->

<svg
   width="11.721mm"
   height="14.509mm"
   viewBox="0 0 11.720999 14.509"
   version="1.1"
   id="svg1"
   inkscape:version="1.4.2 (1:1.4.2+202505120737+ebf0e940d0)"
   sodipodi:docname="Luanti_Game_Jam.svg"
   inkscape:export-filename="Luanti_Game_Jam.png"
   inkscape:export-xdpi="1795.5068"
   inkscape:export-ydpi="1795.5068"
   xmlns:inkscape="http://www.inkscape.org/namespaces/inkscape"
   xmlns:sodipodi="http://sodipodi.sourceforge.net/DTD/sodipodi-0.dtd"
   xmlns="http://www.w3.org/2000/svg"
   xmlns:svg="http://www.w3.org/2000/svg">
  <sodipodi:namedview
     id="namedview1"
     pagecolor="#ffffff"
     bordercolor="#eeeeee"
     borderopacity="1"
     inkscape:showpageshadow="0"
     inkscape:pageopacity="0"
     inkscape:pagecheckerboard="0"
     inkscape:deskcolor="#d1d1d1"
     inkscape:document-units="mm"
     showgrid="true"
     inkscape:zoom="11.313709"
     inkscape:cx="13.744388"
     inkscape:cy="28.328465"
     inkscape:window-width="1920"
     inkscape:window-height="1025"
     inkscape:window-x="0"
     inkscape:window-y="27"
     inkscape:window-maximized="1"
     inkscape:current-layer="layer6"
     showguides="false">
    <inkscape:grid
       type="axonomgrid"
       id="grid5"
       units="px"
       originx="0.13229166"
       originy="1.4552083"
       spacingx="0.99999995"
       spacingy="0.13229166"
       empcolor="#3f3fff"
       empopacity="0.25098039"
       color="#3f3fff"
       opacity="0.1254902"
       empspacing="5"
       dotted="false"
       gridanglex="30"
       gridanglez="30"
       enabled="true"
       visible="true" />
    <inkscape:grid
       type="axonomgrid"
       id="grid6"
       units="px"
       originx="0.13229166"
       originy="1.4552083"
       spacingx="0.99999995"
       spacingy="6.6145832"
       empcolor="#3fff5d"
       empopacity="0.25098039"
       color="#3f3fff"
       opacity="0.1254902"
       empspacing="1"
       dotted="false"
       gridanglex="30"
       gridanglez="30"
       enabled="true"
       visible="true" />
    <inkscape:grid
       type="axonomgrid"
       id="grid36"
       units="px"
       originx="0.13229166"
       originy="0.13229166"
       spacingx="0.99999995"
       spacingy="0.13229166"
       empcolor="#ff453f"
       empopacity="0.05882353"
       color="#ff3f3f"
       opacity="0.46666667"
       empspacing="1"
       dotted="false"
       gridanglex="60"
       gridanglez="60"
       enabled="true"
       visible="true" />
    <inkscape:grid
       id="grid45"
       units="px"
       originx="0.13229166"
       originy="0.13229166"
       spacingx="264583.33"
       spacingy="0.066145832"
       empcolor="#3f3fff"
       empopacity="0.25098039"
       color="#3f3fff"
       opacity="0.1254902"
       empspacing="1"
       enabled="false"
       visible="true" />
  </sodipodi:namedview>
  <defs
     id="defs1">
    <inkscape:path-effect
       effect="fillet_chamfer"
       id="path-effect13"
       is_visible="false"
       lpeversion="1"
       nodesatellites_param="F,0,0,1,0,0.26458332,0,1 @ F,0,0,1,0,0.26458332,0,1 @ F,0,0,1,0,0.26458332,0,1 @ F,0,0,1,0,0.26458332,0,1 @ F,0,0,1,0,0.26458332,0,1 @ F,0,0,1,0,0.26458332,0,1"
       radius="1"
       unit="px"
       method="auto"
       mode="F"
       chamfer_steps="1"
       flexible="false"
       use_knot_distance="true"
       apply_no_radius="true"
       apply_with_radius="true"
       only_selected="false"
       hide_knots="false" />
  </defs>
  <g
     inkscape:label="Layer 1"
     inkscape:groupmode="layer"
     id="layer1"
     transform="translate(-117.65097,-27.979686)">
    <g
       id="layer1-5"
       transform="translate(123.51166,39.35677)"
       style="display:none">
      <path
         style="fill:#ecbe64;fill-opacity:1;fill-rule:evenodd;stroke:#a36444;stroke-width:0.264583;stroke-linecap:round;stroke-linejoin:round;stroke-dasharray:none;stroke-opacity:1"
         d="m 0,-9.9218746 -5.728397,3.3072908 v 3.3072927 L 0,0 5.728397,-3.3072916 V -5.9531247 L 2.291359,-7.9374999 2.291358,-8.5989585 0,-9.9218746"
         id="path4" />
      <path
         fill="#fce94f"
         stroke="#625802"
         d="m 0,-6.6145833 1.7185192,0.3307289 -2e-7,0.6614585 -3.4370395,1.984374 v 1.3229166 L -1.4163767e-6,-1.3229178 V -2.6458344 L 3.4370384,-4.6302083 5.7283972,-5.9531253 2.2913592,-7.9375002 Z"
         id="path6015"
         style="fill:#3b3d51;fill-opacity:1;stroke:#322d36;stroke-width:0.264583;stroke-linecap:round;stroke-linejoin:round;stroke-miterlimit:4;stroke-dasharray:none;stroke-opacity:1"
         sodipodi:nodetypes="ccccccccccc" />
      <path
         style="fill:none;fill-opacity:1;stroke:#8d6957;stroke-width:0.264583;stroke-linecap:round;stroke-linejoin:round;stroke-miterlimit:4;stroke-dasharray:none;stroke-dashoffset:42.0435;stroke-opacity:1;paint-order:markers stroke fill"
         d="m 1.7185192,-6.2838544 -2e-7,0.6614585"
         id="path4290" />
      <path
         fill="#73d216"
         stroke="#325b09"
         d="m 0,-9.9218753 -5.7283972,3.3072919 4.009878,2.3151041 L 1.7185192,-6.2838544 0,-7.2760419 2.291359,-8.5989586 0,-9.9218753"
         id="path4294"
         style="fill:#6a6775;fill-opacity:1;stroke:#524e54;stroke-width:0.264583;stroke-linecap:round;stroke-linejoin:round;stroke-miterlimit:4;stroke-dasharray:none;stroke-opacity:1" />
      <path
         fill="#c17d11"
         stroke="#8f5902"
         d="m -2.8641987,-6.2838544 0.5728397,0.3307292 0.5728398,-0.3307292 v -1.3229167 l -0.5728398,-0.3307292 -0.5728397,0.3307292 v 1.3229167"
         id="path4302"
         style="fill:#3b3d51;fill-opacity:1;stroke:#322d36;stroke-width:0.264583;stroke-linecap:round;stroke-linejoin:round;stroke-miterlimit:4;stroke-dasharray:none;stroke-opacity:1" />
      <path
         style="fill:#ff3000;fill-opacity:1;stroke:#ac0000;stroke-width:0.264583;stroke-linecap:round;stroke-linejoin:round;stroke-miterlimit:2;stroke-dasharray:none;stroke-opacity:1;paint-order:normal"
         d="m -2.291359,-11.244792 1.71851924,0.992187 v 1.9843755 L -2.291359,-7.2760419 -4.0098782,-8.2682295 v -1.9843755 l 1.7185192,-0.992187"
         id="path4314" />
      <path
         style="display:inline;fill:#008eff;fill-opacity:1;stroke:#0050ac;stroke-width:0.264583;stroke-linecap:round;stroke-linejoin:round;stroke-miterlimit:4;stroke-dasharray:none;stroke-opacity:1"
         d="m 4.0098764,-5.6223968 0.5728401,-0.3307298 -2.3e-6,-0.3307296 -0.5728396,-0.3307287 -0.5728398,0.330729 1.8e-6,0.3307298 0.5728398,0.3307293"
         id="path4316"
         sodipodi:nodetypes="ccccccc" />
      <path
         style="display:inline;fill:#71ff00;fill-opacity:1;stroke:#00ac03;stroke-width:0.264583;stroke-linecap:round;stroke-linejoin:round;stroke-miterlimit:4;stroke-dasharray:none;stroke-opacity:1"
         d="m 2.2913591,-6.2838544 0.5728401,-0.3307298 -2.3e-6,-0.3307296 -0.5728396,-0.3307287 -0.5728398,0.330729 1.8e-6,0.3307298 0.5728398,0.3307293"
         id="path4316-3"
         sodipodi:nodetypes="ccccccc" />
      <path
         style="fill:#3b3d51;fill-opacity:1;fill-rule:evenodd;stroke:#322d36;stroke-width:0.265;stroke-linecap:butt;stroke-linejoin:round;stroke-dasharray:none;stroke-opacity:1"
         d="m 3.4370367,-1.9843761 v -1.3229166 l 0.5728396,-0.3307289 v 1.3229164 z"
         id="path6" />
      <path
         style="fill:#3b3d51;fill-opacity:1;fill-rule:evenodd;stroke:#322d36;stroke-width:0.265;stroke-linecap:butt;stroke-linejoin:round;stroke-dasharray:none;stroke-opacity:1"
         d="m 2.2913573,-1.3229178 v -1.3229166 l 0.5728396,-0.3307289 v 1.3229164 z"
         id="path6-3" />
      <path
         style="fill:#3b3d51;fill-opacity:1;fill-rule:evenodd;stroke:#322d36;stroke-width:0.265;stroke-linecap:butt;stroke-linejoin:round;stroke-dasharray:none;stroke-opacity:1"
         d="m 4.5827162,-2.6458342 v -1.3229166 l 0.5728396,-0.3307289 v 1.3229164 z"
         id="path6-1" />
    </g>
    <g
       inkscape:groupmode="layer"
       id="layer2"
       inkscape:label="Layer 2"
       style="display:none">
      <path
         style="fill:#e9b96e;fill-opacity:1;fill-rule:evenodd;stroke:#573a0d;stroke-width:0.264583;stroke-linecap:round;stroke-linejoin:round;stroke-dasharray:none;stroke-opacity:1"
         d="m 123.51166,29.434894 -5.7284,3.307291 v 3.307293 l 5.7284,3.307291 5.7284,-3.307292 v -2.645833 l -3.43704,-1.984375 V 30.75781 l -2.29136,-1.322916"
         id="path4-6" />
      <path
         fill="#2e3436"
         d="M 118.92894,35.388019 118.3561,35.05729 v 1.322916 l 2.8642,1.653646 v -0.661458 l -0.57284,-0.330729 v -0.661459 l -0.57284,-0.330729 v -0.661458 l -1.14568,-0.661459 z"
         id="path4280"
         style="fill:#2e3436;fill-opacity:1;stroke:#2e3436;stroke-width:0.264583;stroke-linecap:round;stroke-linejoin:round;stroke-miterlimit:4;stroke-dasharray:none" />
      <path
         fill="#555753"
         d="m 118.3561,36.380206 0.57284,-0.330729 0.57284,-0.330729 1.14568,0.661458 v 0.661459 l 0.57284,0.330729 v 0.661458 l -2.8642,-1.653646"
         id="path4278"
         style="fill:#555753;fill-opacity:1;stroke:#2e3436;stroke-width:0.264583;stroke-linecap:round;stroke-linejoin:round;stroke-miterlimit:4;stroke-dasharray:none;stroke-opacity:1" />
      <path
         fill="#fce94f"
         stroke="#625802"
         d="m 123.51166,32.742186 1.71852,0.330729 v 0.661458 l 1.71852,0.992188 2.29136,-1.322917 -3.43704,-1.984375 z"
         id="path6015-1"
         style="fill:#fce94f;fill-opacity:1;stroke:#8c7000;stroke-width:0.264583;stroke-linecap:round;stroke-linejoin:round;stroke-miterlimit:4;stroke-dasharray:none;stroke-opacity:1" />
      <path
         style="fill:none;fill-opacity:1;stroke:#573a0d;stroke-width:0.264583;stroke-linecap:round;stroke-linejoin:round;stroke-miterlimit:4;stroke-dasharray:none;stroke-dashoffset:42.0435;stroke-opacity:1;paint-order:markers stroke fill"
         d="m 125.23018,33.072915 v 0.661458"
         id="path4290-8" />
      <path
         fill="#73d216"
         stroke="#325b09"
         d="m 123.51166,29.434894 -5.7284,3.307292 4.00988,2.315104 3.43704,-1.984375 -1.71852,-0.992188 2.29136,-1.322917 -2.29136,-1.322916"
         id="path4294-7"
         style="stroke:#325b09;stroke-width:0.264583;stroke-linecap:round;stroke-linejoin:round;stroke-miterlimit:4;stroke-dasharray:none;stroke-opacity:1" />
      <path
         fill="#c17d11"
         stroke="#8f5902"
         d="m 120.64746,33.072915 0.57284,0.330729 0.57284,-0.330729 v -1.322917 l -0.57284,-0.330729 -0.57284,0.330729 v 1.322917"
         id="path4302-9"
         style="stroke-width:0.264583;stroke-linecap:round;stroke-linejoin:round;stroke-miterlimit:4;stroke-dasharray:none" />
      <path
         fill="#888a85"
         stroke="#2e3436"
         stroke-dashoffset="0.5"
         d="m 128.66722,35.05729 -1.14568,0.661458 v 0.661458 l -0.57284,0.33073 v 0.661458 l 2.29136,-1.322917 v -1.984375 l -0.57284,0.330729 v 0.661459"
         id="path4308"
         style="stroke-width:0.264583;stroke-linecap:round;stroke-linejoin:round;stroke-miterlimit:4;stroke-dasharray:none" />
      <path
         style="fill:#4e9a06;fill-opacity:1;stroke:#325b09;stroke-width:0.264583;stroke-linecap:round;stroke-linejoin:round;stroke-miterlimit:2;stroke-dasharray:none;stroke-opacity:1;paint-order:normal"
         d="m 121.2203,28.111977 1.71852,0.992187 v 1.984376 l -1.71852,0.992187 -1.71852,-0.992187 v -1.984376 l 1.71852,-0.992187"
         id="path4314-2" />
      <path
         style="display:inline;fill:#4e9a06;fill-opacity:1;stroke:#325b09;stroke-width:0.264583;stroke-linecap:round;stroke-linejoin:round;stroke-miterlimit:4;stroke-dasharray:none;stroke-opacity:1"
         d="m 126.9487,33.403644 0.57284,-0.33073 v -1.984375 l -0.57284,-0.330728 -0.57284,0.330729 v 1.984375 l 0.57284,0.330729"
         id="path4316-0" />
      <path
         style="color:#000000;font-style:normal;font-variant:normal;font-weight:normal;font-stretch:normal;font-size:medium;line-height:normal;font-family:sans-serif;font-variant-ligatures:normal;font-variant-position:normal;font-variant-caps:normal;font-variant-numeric:normal;font-variant-alternates:normal;font-variant-east-asian:normal;font-feature-settings:normal;font-variation-settings:normal;text-indent:0;text-align:start;text-decoration:none;text-decoration-line:none;text-decoration-style:solid;text-decoration-color:#000000;letter-spacing:normal;word-spacing:normal;text-transform:none;writing-mode:lr-tb;direction:ltr;text-orientation:mixed;dominant-baseline:auto;baseline-shift:baseline;text-anchor:start;white-space:normal;shape-padding:0;shape-margin:0;inline-size:0;clip-rule:nonzero;display:inline;overflow:visible;visibility:visible;isolation:auto;mix-blend-mode:normal;color-interpolation:sRGB;color-interpolation-filters:linearRGB;solid-color:#000000;solid-opacity:1;vector-effect:none;fill:#ef2929;fill-opacity:1;fill-rule:nonzero;stroke:none;stroke-linecap:round;stroke-linejoin:round;stroke-miterlimit:4;stroke-dasharray:0.132292, 0.132292;stroke-dashoffset:0.0661458;stroke-opacity:1;color-rendering:auto;image-rendering:auto;shape-rendering:auto;text-rendering:auto;enable-background:accumulate;stop-color:#000000"
         d="m 119.61635,35.388019 v 0.132291 l 0.11457,0.06615 v -0.132291 z m 0.22914,0.132291 v 0.132292 l 0.11456,0.06615 v -0.132296 z"
         id="path5628-7" />
      <path
         fill="#729fcf"
         stroke="#19314b"
         d="m 123.51166,38.033852 2.8642,-1.653646 v -0.661458 l 0.57284,-0.330729 V 34.72656 l -1.71852,-0.992187 -3.43704,1.990374 v 0.655459 l 0.57284,0.33073 v 0.661458 l 1.14568,0.661458"
         id="path4298"
         style="stroke-width:0.264583;stroke-linecap:round;stroke-linejoin:round;stroke-miterlimit:4;stroke-dasharray:none" />
    </g>
    <g
       inkscape:groupmode="layer"
       id="layer4"
       inkscape:label="Layer 3"
       transform="translate(117.65097,27.979686)"
       style="display:none">
      <path
         style="fill:#ad6a05;fill-opacity:1;fill-rule:evenodd;stroke:none;stroke-width:0.264583px;stroke-linecap:butt;stroke-linejoin:round;stroke-opacity:1;paint-order:normal"
         d="m 0.13229,4.7624989 1.66e-6,3.3072924 5.72839684,3.3072917 5.7283965,-3.3072917 10e-7,-3.3072915 -5.7283975,-3.3072915 z"
         id="path7"
         sodipodi:nodetypes="ccccccc"
         inkscape:path-effect="#path-effect13"
         inkscape:original-d="m 0.13229,4.7624989 1.66e-6,3.3072924 5.72839684,3.3072917 5.7283965,-3.3072917 10e-7,-3.3072915 -5.7283975,-3.3072915 z" />
      <path
         style="fill:#a1ad05;fill-opacity:1;fill-rule:evenodd;stroke:none;stroke-width:0.265;stroke-linecap:butt;stroke-linejoin:round;stroke-dasharray:none;stroke-opacity:1;paint-order:normal"
         d="M 0.13229166,4.7624997 4.1421695,7.0776038 7.5792075,5.0932288 9.2977267,6.0854164 11.589085,4.7624997 5.8606886,1.4552083 Z"
         id="path10"
         sodipodi:nodetypes="ccccccc" />
      <path
         style="fill:#934c1b;fill-opacity:1;fill-rule:evenodd;stroke:none;stroke-width:0.264583px;stroke-linecap:butt;stroke-linejoin:round;stroke-opacity:1;paint-order:normal"
         d="M 3.5693297,5.423958 2.9964901,5.0932288 V 3.1088541 L 3.5693297,2.778125 4.1421695,3.1088541 v 1.9843747 z"
         id="path9" />
      <path
         style="fill:#ff1100;fill-opacity:1;fill-rule:evenodd;stroke:none;stroke-width:0.264583px;stroke-linecap:butt;stroke-linejoin:round;stroke-opacity:1;paint-order:normal"
         d="m 1.8508107,1.1244791 v 1.984375 L 3.5693297,4.1010414 5.2878489,3.1088541 V 1.1244791 L 3.5693297,0.1322917 Z"
         id="path8" />
      <path
         style="fill:#086eff;fill-opacity:1;fill-rule:evenodd;stroke:none;stroke-width:0.264583px;stroke-linecap:butt;stroke-linejoin:round;stroke-opacity:1;paint-order:normal"
         d="m 7.5792075,5.7546872 1.718519,0.9921875 V 8.0697913 L 5.8606885,10.054166 4.1421695,9.0619785 V 7.7390621 Z"
         id="path11" />
      <path
         style="fill:#646464;fill-opacity:1;fill-rule:evenodd;stroke:none;stroke-width:0.264583px;stroke-linecap:butt;stroke-linejoin:round;stroke-opacity:1;paint-order:normal"
         d="M 0.70513135,8.4005202 V 6.4161455 L 2.9964901,7.7390621 v 1.9843747 z"
         id="path12" />
      <path
         style="fill:#646464;fill-opacity:1;fill-rule:evenodd;stroke:none;stroke-width:0.264583px;stroke-linecap:butt;stroke-linejoin:round;stroke-opacity:1;paint-order:normal"
         d="M 10.443406,8.7312496 V 7.408333 l 1.145679,-0.6614583 v 1.3229166 z"
         id="path13" />
    </g>
    <g
       inkscape:groupmode="layer"
       id="layer5"
       inkscape:label="Layer 4"
       style="display:none">
      <path
         style="fill:none;fill-rule:evenodd;stroke:#000000;stroke-width:0.264583px;stroke-linecap:round;stroke-linejoin:round;stroke-opacity:1"
         d="m 125.23018,33.734373 -3.43704,1.990374 v 0.655459 l 0.57284,0.330729 v 0.661459 l 1.14568,0.661458 2.8642,-1.653646 v -0.661458 l 0.57284,-0.330729 v -0.661458 l 2.29136,-1.322917 -1.71852,-0.992187 V 31.08854 l -0.57284,-0.330729 -0.57284,0.330729 v 0.661458 l -0.57284,-0.330729 -1.71852,0.992188"
         id="path15" />
      <path
         style="fill:none;fill-rule:evenodd;stroke:#000000;stroke-width:0.264583px;stroke-linecap:round;stroke-linejoin:round;stroke-opacity:1"
         d="m 129.24006,36.049477 v -1.984375 l -0.57284,0.330729 v 0.661459 l -1.14568,0.661458 v 0.661458 l -0.57284,0.330729 v 0.661459 l -3.43704,1.984375 -2.29136,-1.322917 v -0.661458 l -0.57284,-0.330729 v -0.661459 l -0.57284,-0.330729 v -0.661458 l -1.14568,-0.661458 v 0.661458 L 118.3561,35.05729 v 1.322916 l -0.57284,-0.330729 v -3.307291 l 4.00988,2.315104 3.43704,-1.984375 -1.71852,-0.992188 2.29136,-1.322916 -2.29136,-1.322917 -0.57284,0.330729 v 1.322917 l -1.14568,0.661458 v 1.322917 l -0.57284,0.330729 -0.57284,-0.330729 v -1.322917 l -1.14568,-0.661458 v -1.984375 l 1.71852,-0.992187"
         id="path16" />
    </g>
    <g
       inkscape:groupmode="layer"
       id="layer6"
       inkscape:label="Layer 5"
       transform="translate(117.65097,27.979686)"
       style="display:inline">
      <path
         style="fill:#9da6b3;fill-opacity:1;fill-rule:evenodd;stroke:#606776;stroke-width:0.265;stroke-linecap:round;stroke-linejoin:round;stroke-dasharray:none;stroke-opacity:1"
         d="M 7.0063679,8.7312494 4.1421695,10.384895 5.8606886,11.377083 6.4335282,11.046354 5.2878489,10.384895 7.5792075,9.0619785 Z"
         id="path35"
         sodipodi:nodetypes="ccccccc"
         inkscape:export-filename="gamejam.png"
         inkscape:export-xdpi="1795.5068"
         inkscape:export-ydpi="1795.5068" />
      <path
         style="display:none;fill:#9da6b3;fill-opacity:1;fill-rule:evenodd;stroke:#606776;stroke-width:0.264583px;stroke-linecap:butt;stroke-linejoin:miter;stroke-opacity:1"
         d="M 7.0063681,8.7312494 V 12.038541 L 7.5792076,12.36927 V 9.0619787 Z"
         id="path34"
         sodipodi:nodetypes="ccccc" />
      <path
         style="display:none;fill:#9da6b3;fill-opacity:1;fill-rule:evenodd;stroke:#606776;stroke-width:0.264583px;stroke-linecap:round;stroke-linejoin:round;stroke-opacity:1"
         d="M 7.0063678,8.7312495 1.277971,12.038541 1.8508107,12.36927 7.5792076,9.0619787 Z"
         id="path29" />
      <g
         id="g31"
         style="fill:#3a445d;fill-opacity:1;stroke:#1c243a;stroke-opacity:1">
        <path
           style="fill:#3a445d;fill-opacity:1;fill-rule:evenodd;stroke:#1c243a;stroke-width:0.265;stroke-linecap:butt;stroke-linejoin:miter;stroke-dasharray:none;stroke-opacity:1"
           d="M 5.8606885,2.1166666 0.13229171,5.423958 V 8.0697913 L 2.9964901,9.7234368 5.8606885,8.0697913 8.7248869,9.7234368 11.589085,8.0697913 V 5.423958 Z"
           id="path30" />
        <path
           style="fill:#3a445d;fill-opacity:1;fill-rule:evenodd;stroke:#1c243a;stroke-width:0.265;stroke-linecap:butt;stroke-linejoin:miter;stroke-dasharray:none;stroke-opacity:1"
           d="M 0.13229166,5.423958 2.9964901,7.0776038 5.8606885,5.423958 8.7248869,7.0776038 11.589085,5.423958"
           id="path31" />
        <path
           style="fill:#3a445d;fill-opacity:1;fill-rule:evenodd;stroke:#1c243a;stroke-width:0.265;stroke-linecap:round;stroke-linejoin:round;stroke-dasharray:none;stroke-opacity:1"
           d="M 5.8606885,5.423958 V 8.069791"
           id="path25" />
        <path
           style="fill:#3a445d;fill-opacity:1;fill-rule:evenodd;stroke:#1c243a;stroke-width:0.265;stroke-linecap:round;stroke-linejoin:round;stroke-dasharray:none;stroke-opacity:1"
           d="m 2.9964901,7.0776038 v 2.645833"
           id="path26" />
        <path
           style="fill:#3a445d;fill-opacity:1;fill-rule:evenodd;stroke:#1c243a;stroke-width:0.265;stroke-linecap:round;stroke-linejoin:round;stroke-dasharray:none;stroke-opacity:1"
           d="m 8.7248869,7.0776038 v 2.645833"
           id="path27" />
      </g>
      <path
         style="fill:#66b9f9;fill-opacity:1;fill-rule:evenodd;stroke:#3e78e9;stroke-width:0.264583px;stroke-linecap:round;stroke-linejoin:round;stroke-opacity:1"
         d="M 8.1520474,4.7624998 8.724887,5.0932289 9.2977266,4.7624998 9.2977267,4.3656248 8.7248871,4.0348957 8.1520475,4.3656248 Z"
         id="path21-9-7"
         sodipodi:nodetypes="ccccccc" />
      <path
         style="fill:#9da6b3;fill-opacity:1;fill-rule:evenodd;stroke:#606776;stroke-width:0.265;stroke-linecap:round;stroke-linejoin:round;stroke-dasharray:none;stroke-opacity:1"
         d="M 2.4236505,5.4239581 2.9964902,5.7546872 3.5693298,5.4239581 V 3.4395834 L 2.9964902,3.1088541 2.4236505,3.4395834 Z"
         id="path18"
         sodipodi:nodetypes="ccccccc" />
      <path
         style="fill:#9da6b3;fill-opacity:1;fill-rule:evenodd;stroke:#606776;stroke-width:0.264583px;stroke-linecap:round;stroke-linejoin:round;stroke-opacity:1"
         d="m 0.13229166,6.0854163 0.5728397,0.3307292 V 7.7390621 L 0.13229166,7.408333 Z"
         id="path22"
         sodipodi:nodetypes="ccccc" />
      <path
         style="fill:#9da6b3;fill-opacity:1;fill-rule:evenodd;stroke:#606776;stroke-width:0.264583px;stroke-linecap:round;stroke-linejoin:round;stroke-opacity:1"
         d="M 11.589085,6.0854163 11.016246,6.4161455 V 7.7390621 L 11.589085,7.408333 Z"
         id="path23"
         sodipodi:nodetypes="ccccc" />
      <path
         style="fill:#ff4013;fill-opacity:1;fill-rule:evenodd;stroke:#c10905;stroke-width:0.264583px;stroke-linecap:round;stroke-linejoin:round;stroke-opacity:1"
         d="M 1.2779711,3.4395834 2.9964902,4.4317706 4.7150092,3.4395834 V 1.4552084 L 2.9964902,0.46302093 1.2779711,1.4552084 Z"
         id="path19"
         sodipodi:nodetypes="ccccccc" />
      <path
         d="M 3.6840515,8.532812 V 8.6651037 L 3.5693298,8.7312497 V 8.5989579 Z"
         style="baseline-shift:baseline;display:inline;overflow:visible;vector-effect:none;fill:#60e115;fill-opacity:1;stroke-linecap:round;stroke-linejoin:round;stroke-dasharray:0.132292, 0.132292;stroke-dashoffset:0.0661458;enable-background:accumulate;stop-color:#000000"
         id="path33"
         sodipodi:nodetypes="ccccc" />
      <path
         d="M 3.9133412,8.4005203 V 8.532812 L 3.7986195,8.598958 V 8.4666662 Z"
         style="baseline-shift:baseline;display:inline;overflow:visible;vector-effect:none;fill:#10b62f;fill-opacity:1;stroke-linecap:round;stroke-linejoin:round;stroke-dasharray:0.132292, 0.132292;stroke-dashoffset:0.0661458;enable-background:accumulate;stop-color:#000000"
         id="path33-3"
         sodipodi:nodetypes="ccccc" />
      <path
         d="M 4.1424771,8.2682287 V 8.4005204 L 4.0277554,8.4666664 V 8.3343746 Z"
         style="baseline-shift:baseline;display:inline;overflow:visible;vector-effect:none;fill:#10b62f;fill-opacity:1;stroke-linecap:round;stroke-linejoin:round;stroke-dasharray:0.132292, 0.132292;stroke-dashoffset:0.0661458;enable-background:accumulate;stop-color:#000000"
         id="path33-3-5"
         sodipodi:nodetypes="ccccc" />
      <path
         d="M 4.3714592,8.135937 V 8.2682287 L 4.2567375,8.3343747 V 8.2020829 Z"
         style="baseline-shift:baseline;display:inline;overflow:visible;vector-effect:none;fill:#10b62f;fill-opacity:1;stroke-linecap:round;stroke-linejoin:round;stroke-dasharray:0.132292, 0.132292;stroke-dashoffset:0.0661458;enable-background:accumulate;stop-color:#000000"
         id="path33-3-5-5"
         sodipodi:nodetypes="ccccc" />
      <path
         d="M 7.9229114,8.3343746 V 8.5989579 L 8.1522011,8.7312498 8.1520473,8.4666663 Z"
         style="baseline-shift:baseline;display:inline;overflow:visible;vector-effect:none;fill:#66b9f9;fill-opacity:1;stroke-linecap:round;stroke-linejoin:round;stroke-dasharray:0.132292, 0.132292;stroke-dashoffset:0.0661458;enable-background:accumulate;stop-color:#000000"
         id="path33-3-5-5-4"
         sodipodi:nodetypes="ccccc" />
      <path
         style="fill:#60e115;fill-opacity:1;fill-rule:evenodd;stroke:#10b62f;stroke-width:0.264583px;stroke-linecap:round;stroke-linejoin:round;stroke-opacity:1"
         d="m 7.0063679,5.4239582 0.5728395,0.3307291 0.5728396,-0.3307291 1e-7,-0.396875 L 7.5792075,4.6963541 7.006368,5.0270832 Z"
         id="path21-9-9"
         sodipodi:nodetypes="ccccccc" />
      <path
         style="fill:#ff4013;fill-opacity:1;fill-rule:evenodd;stroke:#c10905;stroke-width:0.264583px;stroke-linecap:round;stroke-linejoin:round;stroke-opacity:1"
         d="m 9.2977268,5.4239582 0.5728396,0.3307291 0.5728386,-0.3307291 0,-0.396875 L 9.8705665,4.6963541 9.2977269,5.0270832 Z"
         id="path21"
         sodipodi:nodetypes="ccccccc" />
      <path
         style="fill:#fae735;fill-opacity:1;fill-rule:evenodd;stroke:#f1be10;stroke-width:0.264583px;stroke-linecap:round;stroke-linejoin:round;stroke-opacity:1"
         d="M 8.1520478,6.0854164 8.724887,6.4161455 9.2977266,6.0854164 9.2977267,5.6885414 8.7248871,5.3578123 8.1520479,5.6885414 Z"
         id="path21-9"
         sodipodi:nodetypes="ccccccc" />
    </g>
    <g
       inkscape:groupmode="layer"
       id="layer7"
       inkscape:label="Layer 6"
       style="display:inline">
      <g
         id="g52"
         style="fill:#f1be10;fill-opacity:1"
         transform="translate(2.0746431e-4,0.26458319)">
        <g
           id="g69"
           style="fill:#f1be10;fill-opacity:1">
          <path
             style="fill:#f1be10;fill-opacity:1;fill-rule:evenodd;stroke:none;stroke-width:0.264583px;stroke-linecap:butt;stroke-linejoin:miter;stroke-opacity:1"
             d="m 120.99116,38.563019 0.22914,-0.132292 0.68741,0.396875 v 0.264583 l -0.22914,0.132292 0.22914,0.132292 v 0.264583 l -0.22914,0.132292 0.22914,0.132291 v 0.264584 l -0.22914,0.132291 -0.68741,-0.396875 z"
             id="path59" />
          <path
             style="fill:#f1be10;fill-opacity:1;fill-rule:evenodd;stroke:none;stroke-width:0.264583px;stroke-linecap:butt;stroke-linejoin:miter;stroke-opacity:1"
             d="m 119.84548,37.90156 0.22914,-0.132291 0.22914,0.132291 0.22913,0.396875 0.22914,-0.132291 0.22913,0.132291 v 1.322917 l -0.22913,0.132292 -0.22914,-0.132292 V 38.69531 l -0.22913,0.132292 v 0.396875 l -0.22914,0.132292 -0.22914,-0.132292 z"
             id="path58" />
          <path
             style="fill:#f1be10;fill-opacity:1;fill-rule:evenodd;stroke:none;stroke-width:0.264583px;stroke-linecap:butt;stroke-linejoin:miter;stroke-opacity:1"
             d="m 119.15808,38.827602 0.22913,-0.132292 v 0.264584 l 0.22914,0.132291 0.22913,-0.132291 v -1.322917 l -0.6874,-0.396875 -0.22914,0.132292 v 1.322916 z"
             id="path57" />
          <path
             style="fill:#f1be10;fill-opacity:1;fill-rule:evenodd;stroke:none;stroke-width:0.264583px;stroke-linecap:butt;stroke-linejoin:miter;stroke-opacity:1"
             d="m 118.01219,36.578644 -0.22914,0.132292 v 1.322916 l 0.91655,0.529167 0.22913,-0.132292 v -0.79375 l -0.45827,-0.264583 -0.22914,0.132292 v -0.264584 l 0.45828,0.264584 0.22913,-0.132292 v -0.264583 z"
             id="path71" />
        </g>
        <g
           id="g68"
           style="fill:#fae735;fill-opacity:1">
          <path
             id="path40"
             style="fill:#fae735;fill-opacity:1;fill-rule:evenodd;stroke:none;stroke-width:0.529166px;stroke-linecap:butt;stroke-linejoin:miter;stroke-opacity:1"
             d="m 1.2777651,9.3927079 v 1.3229161 l 0.2294434,0.132292 V 10.31875 l 0.2294434,0.132292 v 0.529166 L 1.9650617,11.1125 V 9.7895829 Z m 0.2294434,0.396875 0.2294434,0.1322916 V 10.186458 L 1.5072085,10.054166 Z"
             sodipodi:nodetypes="cccccccccccccc"
             transform="translate(117.65097,27.979686)" />
          <path
             style="fill:#fae735;fill-opacity:1;fill-rule:evenodd;stroke:none;stroke-width:0.529166px;stroke-linecap:butt;stroke-linejoin:miter;stroke-opacity:1"
             d="m 3.3401937,10.583333 v 1.322916 l 0.6874081,0.396875 V 12.038541 L 3.5693297,11.773957 v -0.264583 l 0.4582721,0.264583 V 11.509374 L 3.5693297,11.244791 v -0.264583 l 0.4582721,0.264583 v -0.264584 z"
             id="path38"
             sodipodi:nodetypes="ccccccccccccc"
             transform="translate(117.65097,27.979686)" />
          <path
             style="fill:#fae735;fill-opacity:1;fill-rule:evenodd;stroke:none;stroke-width:0.529166px;stroke-linecap:butt;stroke-linejoin:miter;stroke-opacity:1"
             d="M 1.0486276,9.2604163 0.13229154,8.7312493 V 10.054166 L 1.0488349,10.583333 V 9.7895827 L 0.59056334,9.5249993 v 0.2645832 l 0.2291356,0.132292 4e-7,0.2645835 -0.4582718,-0.2645835 v -0.79375 L 1.0488349,9.5249997 Z"
             id="path39"
             sodipodi:nodetypes="ccccccccccccc"
             transform="translate(117.65097,27.979686)" />
          <path
             style="fill:#fae735;fill-opacity:1;fill-rule:evenodd;stroke:none;stroke-width:0.529166px;stroke-linecap:butt;stroke-linejoin:miter;stroke-opacity:1"
             d="m 2.1945143,9.9218741 v 1.3229169 l 0.229136,0.132292 1.4e-6,-0.926042 0.2291358,0.396875 0.2291343,-0.132292 v 0.926041 l 0.229136,0.132292 V 10.451041 L 2.8819217,10.318749 2.6527864,10.451041 2.4236503,10.05415 Z"
             id="path45"
             sodipodi:nodetypes="ccccccccccccc"
             transform="translate(117.65097,27.979686)" />
        </g>
        <path
           style="fill:none;fill-rule:evenodd;stroke:none;stroke-width:0.264583px;stroke-linecap:butt;stroke-linejoin:miter;stroke-opacity:1"
           d="m 118.92894,37.372394 0.22914,-0.132292 0.6874,0.396875 v 1.322917 l -0.22913,0.132291 v -1.322916 z"
           id="path56" />
      </g>
      <g
         id="g53"
         transform="translate(-0.11436326,0.19843706)"
         style="fill:#f1be10;fill-opacity:1">
        <g
           id="g71"
           style="fill:#f1be10;fill-opacity:1">
          <path
             style="display:inline;fill:#f1be10;fill-opacity:1;fill-rule:evenodd;stroke:none;stroke-width:0.264583px;stroke-linecap:butt;stroke-linejoin:miter;stroke-opacity:1"
             d="m 124.19907,40.415102 0.22914,-0.132291 0.22914,0.132291 0.22913,0.396875 0.22914,-0.132291 0.22913,0.132291 v 1.322917 l -0.22913,0.132292 -0.22914,-0.132292 v -0.926042 l -0.22913,0.132292 v 0.396875 l -0.22914,0.132292 -0.22914,-0.132292 z"
             id="path58-8" />
          <path
             style="display:inline;fill:#f1be10;fill-opacity:1;fill-rule:evenodd;stroke:none;stroke-width:0.264583px;stroke-linecap:butt;stroke-linejoin:miter;stroke-opacity:1"
             d="m 123.51167,41.341144 0.22913,-0.132292 v 0.264584 l 0.22914,0.132291 0.22913,-0.132291 v -1.322917 l -0.6874,-0.396875 -0.22914,0.132292 v 1.322916 z"
             id="path57-7" />
          <path
             style="display:inline;fill:#f1be10;fill-opacity:1;fill-rule:evenodd;stroke:none;stroke-width:0.264583px;stroke-linecap:butt;stroke-linejoin:miter;stroke-opacity:1"
             d="m 122.36598,40.150519 0.22914,-0.132292 0.22913,0.132292 v -0.529167 l 0.22914,-0.132292 0.22913,0.132292 v 1.322917 l -0.22913,0.132291 -0.68741,-0.396875 z"
             id="path60" />
        </g>
        <g
           id="g70"
           style="fill:#fae735;fill-opacity:1">
          <path
             id="path40-7"
             style="fill:#fae735;fill-opacity:1;fill-rule:evenodd;stroke:none;stroke-width:0.529166px;stroke-linecap:butt;stroke-linejoin:miter;stroke-opacity:1"
             d="m 5.6315528,11.906249 v 1.322917 l 0.229443,0.132292 v -0.529167 l 0.229444,0.132292 v 0.529166 l 0.22841,0.132292 v -1.322917 z m 0.229443,0.396875 0.229444,0.132292 v 0.264583 l -0.229444,-0.132292 z"
             sodipodi:nodetypes="cccccccccccccc"
             transform="translate(117.65097,27.979686)" />
          <path
             style="fill:#fae735;fill-opacity:1;fill-rule:evenodd;stroke:none;stroke-width:0.529166px;stroke-linecap:butt;stroke-linejoin:miter;stroke-opacity:1"
             d="m 6.5480968,12.435416 v 1.322917 l 0.229136,0.132292 2e-6,-0.926042 0.229135,0.396875 0.229135,-0.132292 v 0.926041 l 0.229135,0.132292 v -1.322916 l -0.229135,-0.132292 -0.229136,0.132292 -0.229136,-0.396891 z"
             id="path45-7"
             sodipodi:nodetypes="ccccccccccccc"
             transform="translate(117.65097,27.979686)" />
          <path
             style="fill:#fae735;fill-opacity:1;fill-rule:evenodd;stroke:none;stroke-width:0.529166px;stroke-linecap:butt;stroke-linejoin:miter;stroke-opacity:1"
             d="m 5.1732808,11.641666 v 1.058333 l -0.229136,-0.132292 v -0.264583 l -0.229136,-0.132292 v 0.529167 l 0.687408,0.396875 v -1.322916 z"
             id="path46"
             transform="translate(117.65097,27.979686)" />
        </g>
      </g>
      <g
         id="g54"
         style="display:inline;fill:#10b62f;fill-opacity:1;stroke:none;stroke-width:0.067;stroke-dasharray:none;stroke-opacity:1">
        <g
           id="g66"
           style="display:inline;fill:#10b62f;fill-opacity:1">
          <path
             style="fill:#10b62f;fill-opacity:1;fill-rule:evenodd;stroke:none;stroke-width:0.264583px;stroke-linecap:butt;stroke-linejoin:miter;stroke-opacity:1"
             d="m 128.09438,30.757811 0.22913,-0.132292 0.22914,0.132292 v 1.322916 l -0.22914,0.132292 -0.22913,-0.132292 z"
             id="path66" />
          <path
             style="fill:#10b62f;fill-opacity:1;fill-rule:evenodd;stroke:none;stroke-width:0.264583px;stroke-linecap:butt;stroke-linejoin:miter;stroke-opacity:1"
             d="m 127.17783,30.228644 0.22914,-0.132291 0.68741,0.396875 v 0.264583 l -0.22914,0.132291 v 0.79375 l -0.22914,0.132292 -0.22913,-0.132292 v -1.058333 l -0.22914,-0.132291 z"
             id="path65" />
          <path
             style="fill:#10b62f;fill-opacity:1;fill-rule:evenodd;stroke:none;stroke-width:0.264583px;stroke-linecap:butt;stroke-linejoin:miter;stroke-opacity:1"
             d="m 126.26129,29.699478 0.22913,-0.132292 0.22914,0.132292 0.11457,0.330729 0.11457,0.330729 -0.15276,-0.440972 0.15278,-0.0882 0.22913,0.132292 v 1.322916 l -0.22913,0.132292 -0.22914,-0.132292 v -0.264583 l -0.22914,0.132292 -0.22913,-0.132292 z"
             id="path64"
             sodipodi:nodetypes="ccccccccccccccc" />
          <path
             style="fill:#10b62f;fill-opacity:1;fill-rule:evenodd;stroke:none;stroke-width:0.264583px;stroke-linecap:butt;stroke-linejoin:miter;stroke-opacity:1"
             d="m 125.34475,29.170311 0.22913,-0.132292 0.68741,0.396875 v 1.322917 l -0.22914,0.132292 -0.22913,-0.132292 v -0.264583 l -0.22914,0.132291 -0.22913,-0.132291 z"
             id="path63" />
          <path
             style="fill:#10b62f;fill-opacity:1;fill-rule:evenodd;stroke:none;stroke-width:0.264583px;stroke-linecap:butt;stroke-linejoin:miter;stroke-opacity:1"
             d="m 124.4282,28.641144 0.22914,-0.132291 0.22913,0.132291 v 0.264584 l 0.22914,-0.132292 0.22914,0.132292 v 1.322916 l -0.22914,0.132292 -0.68741,-0.396875 z"
             id="path62" />
          <path
             style="fill:#10b62f;fill-opacity:1;fill-rule:evenodd;stroke:none;stroke-width:0.264583px;stroke-linecap:butt;stroke-linejoin:miter;stroke-opacity:1"
             d="m 123.51166,28.111978 0.22913,-0.132292 0.22914,0.132292 v 1.058333 l 0.45827,0.264583 v 0.264584 l -0.22913,0.132291 -0.68741,-0.396875 z"
             id="path61" />
        </g>
        <g
           id="g67"
           style="display:inline;fill:#60e115;fill-opacity:1">
          <path
             id="path40-4"
             style="fill:#60e115;fill-opacity:1;fill-rule:evenodd;stroke:none;stroke-width:0.067;stroke-linecap:butt;stroke-linejoin:miter;stroke-dasharray:none;stroke-opacity:1"
             d="m 7.6938867,1.1906249 v 1.3229166 l 0.2294434,0.132292 v -0.529167 l 0.2294434,0.132292 v 0.5291664 l 0.2284098,0.132292 v -1.322917 z m 0.2294434,0.396875 0.2294434,0.1322916 V 1.9843749 L 7.9233301,1.8520831 Z"
             sodipodi:nodetypes="cccccccccccccc"
             transform="translate(117.65097,27.979686)" />
          <path
             style="fill:#60e115;fill-opacity:1;fill-rule:evenodd;stroke:none;stroke-width:0.067;stroke-linecap:butt;stroke-linejoin:miter;stroke-dasharray:none;stroke-opacity:1"
             d="M 5.8606885,0.13229171 V 1.4552083 l 0.687408,0.3968749 -4e-7,-0.2645833 L 6.0898246,1.3229166 V 0.26458341 Z"
             id="path47"
             transform="translate(117.65097,27.979686)" />
          <path
             style="fill:#60e115;fill-opacity:1;fill-rule:evenodd;stroke:none;stroke-width:0.067;stroke-linecap:butt;stroke-linejoin:miter;stroke-dasharray:none;stroke-opacity:1"
             d="M 6.7772321,0.66145831 V 1.9843749 l 0.6874076,0.396875 V 1.0583333 L 7.2355038,0.92604161 V 1.9843749 L 7.0063681,1.8520832 V 0.79375001 Z"
             id="path48"
             transform="translate(117.65097,27.979686)" />
          <path
             style="fill:#60e115;fill-opacity:1;fill-rule:evenodd;stroke:none;stroke-width:0.067;stroke-linecap:butt;stroke-linejoin:miter;stroke-dasharray:none;stroke-opacity:1"
             d="m 8.8394549,3.175 -0.229136,-0.1322918 4e-7,-1.3229167 0.2291356,0.1322917 0.2291359,0.6614583 -2e-7,-0.5291666 0.229136,0.1322916 V 3.4395832 L 9.0685909,3.3072917 8.8394549,2.6458332 Z"
             id="path49"
             sodipodi:nodetypes="ccccccccccc"
             transform="translate(117.65097,27.979686)" />
          <path
             style="fill:#60e115;fill-opacity:1;fill-rule:evenodd;stroke:none;stroke-width:0.067;stroke-linecap:butt;stroke-linejoin:miter;stroke-dasharray:none;stroke-opacity:1"
             d="M 9.5268625,2.2489583 10.21427,2.6458332 V 2.9104166 L 9.9851345,2.7781249 V 3.8364582 L 9.7559985,3.7041665 V 2.6458332 L 9.5268625,2.5135416 Z"
             id="path50"
             transform="translate(117.65097,27.979686)" />
          <path
             style="fill:#60e115;fill-opacity:1;fill-rule:evenodd;stroke:none;stroke-width:0.067;stroke-linecap:butt;stroke-linejoin:miter;stroke-dasharray:none;stroke-opacity:1"
             d="m 10.443406,4.1010415 0.229136,0.132292 V 2.9104166 L 10.443406,2.7781249 Z"
             id="path52"
             transform="translate(117.65097,27.979686)" />
        </g>
      </g>
      <g
         id="g74"
         style="fill:#c10905;fill-opacity:1;stroke:none;stroke-opacity:1"
         transform="translate(-0.34370769,-0.19843726)">
        <path
           style="fill:#ff4013;fill-opacity:1;fill-rule:evenodd;stroke:none;stroke-width:0.264583px;stroke-linecap:butt;stroke-linejoin:miter;stroke-opacity:1"
           d="m 129.24006,37.372394 -0.22914,-0.132292 -0.68741,0.396875 v 0.79375 l 0.22914,0.132292 -0.22914,0.132291 v 0.264584 l 0.22914,0.132291 0.68741,-0.396875 v -0.79375 l -0.22914,-0.132291 0.22914,-0.132292 z"
           id="path77" />
        <path
           style="fill:#ff4013;fill-opacity:1;fill-rule:evenodd;stroke:none;stroke-width:0.264583px;stroke-linecap:butt;stroke-linejoin:miter;stroke-opacity:1"
           d="m 127.40697,38.430727 -0.22914,-0.132292 -0.68741,0.396875 v 1.322917 l 0.22914,0.132292 0.68741,-0.396875 z"
           id="path76" />
        <path
           style="fill:#ff4013;fill-opacity:1;fill-rule:evenodd;stroke:none;stroke-width:0.264583px;stroke-linecap:butt;stroke-linejoin:miter;stroke-opacity:1"
           d="m 126.49042,38.959894 -0.22913,-0.132292 -0.68741,0.396875 v 0.264583 l 0.22914,0.132292 -0.22914,0.132292 v 0.79375 l 0.22914,0.132291 0.6874,-0.396875 v -0.264583 l -0.22913,-0.132292 0.22913,-0.132291 z"
           id="path75" />
        <path
           style="display:inline;fill:#ff4013;fill-opacity:1;fill-rule:evenodd;stroke:none;stroke-width:0.264583px;stroke-linecap:butt;stroke-linejoin:miter;stroke-opacity:1"
           d="m 128.32351,37.901561 -0.22913,-0.132292 -0.68741,0.396875 v 0.264583 l 0.22914,0.132292 -0.22914,0.132292 v 0.79375 l 0.22914,0.132291 0.6874,-0.396875 v -0.264583 l -0.22913,-0.132292 0.22913,-0.132291 z"
           id="path75-6" />
        <path
           style="fill:#c10905;fill-opacity:1;fill-rule:evenodd;stroke:none;stroke-width:0.264583px;stroke-linecap:butt;stroke-linejoin:miter;stroke-opacity:1"
           d="m 125.80302,39.356768 0.68741,-0.396874 v 0.793749 l -0.45828,0.264584 v 0.264583 l 0.45828,-0.264583 v 0.264583 l -0.68741,0.396875 v -0.79375 l 0.45827,-0.264583 v -0.264584 l -0.45827,0.264584 z"
           id="path72" />
        <path
           style="display:inline;fill:#c10905;fill-opacity:1;fill-rule:evenodd;stroke:none;stroke-width:0.264583px;stroke-linecap:butt;stroke-linejoin:miter;stroke-opacity:1"
           d="m 127.63611,38.298435 0.68741,-0.396874 v 0.793749 l -0.45828,0.264584 v 0.264583 l 0.45828,-0.264583 v 0.264583 l -0.68741,0.396875 v -0.79375 l 0.45827,-0.264583 v -0.264584 l -0.45827,0.264584 z"
           id="path72-2" />
        <path
           id="path73"
           style="fill:#c10905;fill-opacity:1;fill-rule:evenodd;stroke:none;stroke-width:0.264583px;stroke-linecap:butt;stroke-linejoin:miter;stroke-opacity:1"
           d="m 127.40655,38.430727 -0.68729,0.396875 v 1.322917 l 0.68729,-0.396875 z m -0.22892,0.396875 v 0.79375 l -0.22893,0.132292 v -0.79375 z" />
        <path
           style="fill:#c10905;fill-opacity:1;fill-rule:evenodd;stroke:none;stroke-width:0.264583px;stroke-linecap:butt;stroke-linejoin:miter;stroke-opacity:1"
           d="m 128.55265,37.769269 0.68741,-0.396875 v 0.264583 l -0.45828,0.264583 v 0.264584 l 0.45828,-0.264584 v 0.79375 l -0.68741,0.396875 v -0.264583 l 0.45827,-0.264583 v -0.264584 l -0.45827,0.264584 z"
           id="path74" />
      </g>
    </g>
  </g>
</svg>
